<svg width="88" height="89" viewBox="0 0 88 89" fill="none" xmlns="http://www.w3.org/2000/svg">
<path d="M40.8242 42.8075H34.4781C33.6019 42.8075 32.8915 43.5178 32.8915 44.394V69.9902H42.4108V44.394C42.4108 43.5178 41.7004 42.8075 40.8242 42.8075ZM28.1319 55.4998H21.7858C20.9096 55.4998 20.1992 56.2101 20.1992 57.0863V69.9902H29.7184V57.0863C29.7184 56.2101 29.0081 55.4998 28.1319 55.4998ZM66.2088 17.4229H59.8627C58.9865 17.4229 58.2761 18.1332 58.2761 19.0094V69.9902H67.7954V19.0094C67.7954 18.1332 67.085 17.4229 66.2088 17.4229ZM53.5165 30.1152H47.1704C46.2942 30.1152 45.5838 30.8255 45.5838 31.7017V69.9902H55.1031V31.7017C55.1031 30.8255 54.3927 30.1152 53.5165 30.1152Z" fill="url(#paint0_linear_7965_9444)"/>
<path d="M21.7882 20.5959C22.6644 20.5959 23.3748 19.8856 23.3748 19.0094C23.3748 18.1332 22.6644 17.4229 21.7882 17.4229C20.912 17.4229 20.2017 18.1332 20.2017 19.0094C20.2017 19.8856 20.912 20.5959 21.7882 20.5959ZM28.1344 20.5959C29.0106 20.5959 29.7209 19.8856 29.7209 19.0094C29.7209 18.1332 29.0106 17.4229 28.1344 17.4229C27.2582 17.4229 26.5479 18.1332 26.5479 19.0094C26.5479 19.8856 27.2582 20.5959 28.1344 20.5959ZM34.4805 20.5959C35.3567 20.5959 36.0671 19.8856 36.0671 19.0094C36.0671 18.1332 35.3567 17.4229 34.4805 17.4229C33.6044 17.4229 32.894 18.1332 32.894 19.0094C32.894 19.8856 33.6044 20.5959 34.4805 20.5959ZM40.8267 20.5959C41.7029 20.5959 42.4132 19.8856 42.4132 19.0094C42.4132 18.1332 41.7029 17.4229 40.8267 17.4229C39.9505 17.4229 39.2402 18.1332 39.2402 19.0094C39.2402 19.8856 39.9505 20.5959 40.8267 20.5959ZM47.1729 20.5959C48.049 20.5959 48.7594 19.8856 48.7594 19.0094C48.7594 18.1332 48.049 17.4229 47.1729 17.4229C46.2967 17.4229 45.5863 18.1332 45.5863 19.0094C45.5863 19.8856 46.2967 20.5959 47.1729 20.5959ZM53.519 20.5959C54.3952 20.5959 55.1055 19.8856 55.1055 19.0094C55.1055 18.1332 54.3952 17.4229 53.519 17.4229C52.6428 17.4229 51.9325 18.1332 51.9325 19.0094C51.9325 19.8856 52.6428 20.5959 53.519 20.5959ZM21.7882 33.2882C22.6644 33.2882 23.3748 32.5779 23.3748 31.7017C23.3748 30.8255 22.6644 30.1152 21.7882 30.1152C20.912 30.1152 20.2017 30.8255 20.2017 31.7017C20.2017 32.5779 20.912 33.2882 21.7882 33.2882ZM28.1344 33.2882C29.0106 33.2882 29.7209 32.5779 29.7209 31.7017C29.7209 30.8255 29.0106 30.1152 28.1344 30.1152C27.2582 30.1152 26.5479 30.8255 26.5479 31.7017C26.5479 32.5779 27.2582 33.2882 28.1344 33.2882ZM34.4805 33.2882C35.3567 33.2882 36.0671 32.5779 36.0671 31.7017C36.0671 30.8255 35.3567 30.1152 34.4805 30.1152C33.6044 30.1152 32.894 30.8255 32.894 31.7017C32.894 32.5779 33.6044 33.2882 34.4805 33.2882ZM40.8267 33.2882C41.7029 33.2882 42.4132 32.5779 42.4132 31.7017C42.4132 30.8255 41.7029 30.1152 40.8267 30.1152C39.9505 30.1152 39.2402 30.8255 39.2402 31.7017C39.2402 32.5779 39.9505 33.2882 40.8267 33.2882ZM21.7882 45.9805C22.6644 45.9805 23.3748 45.2702 23.3748 44.394C23.3748 43.5178 22.6644 42.8075 21.7882 42.8075C20.912 42.8075 20.2017 43.5178 20.2017 44.394C20.2017 45.2702 20.912 45.9805 21.7882 45.9805ZM28.1344 45.9805C29.0106 45.9805 29.7209 45.2702 29.7209 44.394C29.7209 43.5178 29.0106 42.8075 28.1344 42.8075C27.2582 42.8075 26.5479 43.5178 26.5479 44.394C26.5479 45.2702 27.2582 45.9805 28.1344 45.9805ZM69.4902 68.4036H18.5094C17.6332 68.4036 16.9229 69.114 16.9229 69.9902C16.9229 70.8664 17.6332 71.5767 18.5094 71.5767H69.4902C70.3664 71.5767 71.0767 70.8664 71.0767 69.9902C71.0767 69.114 70.3664 68.4036 69.4902 68.4036Z" fill="#332AB5"/>
<defs>
<linearGradient id="paint0_linear_7965_9444" x1="67.7082" y1="17.2133" x2="9.17255" y2="28.1507" gradientUnits="userSpaceOnUse">
<stop stop-color="#0F00FF"/>
<stop offset="1" stop-color="white"/>
</linearGradient>
</defs>
</svg>
