<svg width="24" height="22" viewBox="0 0 24 22" fill="none" xmlns="http://www.w3.org/2000/svg">
<path d="M21.7254 19.9661C20.7533 20.7735 19.1798 21.3651 17.8996 21.5027C13.9353 21.9286 9.61962 19.2427 6.86434 16.7167C2.94899 13.1287 -1.61299 6.6858 2.53675 1.7737C3.08417 1.12496 3.77272 0.561403 4.67239 0.46806C5.93412 0.318711 6.77856 1.18798 7.57391 1.96738C8.3938 2.77013 9.5954 3.56356 9.60152 4.7315C9.60766 5.99981 8.41344 6.67305 7.515 7.52831C7.47695 7.98687 7.58741 8.4664 7.70401 8.90863C8.51407 11.9763 11.3149 14.5068 14.5933 15.0645C14.9701 15.1287 15.3543 15.1789 15.7385 15.1625C16.3227 14.7448 16.8075 14.1882 17.35 13.7239C18.3896 12.8348 19.4562 13.3388 20.2724 14.1217L22.1196 15.8754C22.813 16.5382 23.1751 16.8777 23.0917 17.9301C23.0082 18.9627 22.4839 19.3454 21.7254 19.9661ZM4.76072 1.57522C4.12617 1.67673 3.57754 2.3173 3.22405 2.78984C1.29953 5.35913 2.02246 8.14073 3.4818 10.6833C5.37195 13.9758 8.33348 16.9619 11.7813 18.8288C13.5696 19.7972 15.8917 20.6676 17.9856 20.3258C19.5493 20.0714 20.325 19.6245 21.4407 18.6689C21.745 18.4005 21.912 18.1824 21.9291 17.7751C21.9537 17.1964 21.5548 16.9759 21.1682 16.606L19.8414 15.3447C18.7453 14.3062 18.7613 13.9982 17.4701 15.2093C16.3961 16.2174 16.5913 16.3773 15.1344 16.2513C10.5133 15.8523 6.38307 11.8933 6.32682 7.44087C6.31946 6.82015 7.28663 6.16791 7.74811 5.73504C8.29185 5.22632 8.7828 4.70942 8.09792 4.06887L6.4471 2.52752C5.97212 2.08763 5.50451 1.50404 4.76072 1.57522Z" fill="white"/>
</svg>
