<svg width="32" height="32" viewBox="0 0 32 32" fill="none" xmlns="http://www.w3.org/2000/svg">
<path d="M25.9838 21.7025C25.9218 21.0754 25.5855 20.5152 25.0611 20.1656L21.5059 17.7973C20.6759 17.2445 19.5663 17.3563 18.8618 18.059L17.7256 19.2039C17.4671 19.2939 16.2716 18.7875 14.7323 17.2486C13.1923 15.709 12.6925 14.5245 12.7579 14.2887L13.9234 13.1239C14.6273 12.4206 14.7377 11.309 14.1853 10.4816L11.8154 6.92869C11.4655 6.40457 10.9049 6.0686 10.2775 6.00658C9.6487 5.94386 9.03628 6.16468 8.59091 6.60975L6.83271 8.36679C4.42321 10.7747 7.5611 16.0662 11.739 20.242C14.5793 23.0804 20.7948 27.9738 23.6221 25.145L25.3803 23.388C25.8256 22.9436 26.0459 22.3288 25.9838 21.7025Z" fill="white"/>
</svg>
