<svg width="64" height="64" viewBox="0 0 64 64" fill="none" xmlns="http://www.w3.org/2000/svg">
<path d="M47.1154 40.0499H17.782C17.4971 40.0499 17.2438 39.8687 17.1515 39.5994L12.7665 26.8099C12.6475 26.4613 12.8329 26.0825 13.1812 25.9627C13.288 25.9264 13.3994 25.9173 13.5027 25.9356C13.7438 25.9497 13.9685 26.0954 14.0726 26.3319C14.6147 27.5629 16.543 31.5371 18.7925 31.5371C18.8204 31.5371 18.8486 31.5363 18.8772 31.5348C20.2341 31.4745 22.3562 29.9086 24.7606 22.795C24.8525 22.5241 25.1062 22.3418 25.3919 22.3418C25.678 22.3418 25.9317 22.5241 26.0236 22.795C26.8446 25.2207 29.5961 31.4978 32.4533 31.4978C32.4609 31.4978 32.4682 31.4974 32.4762 31.4974C33.8308 31.481 35.9136 29.9608 38.144 22.8099C38.2314 22.531 38.4889 22.3418 38.7807 22.3418H38.7872C39.0817 22.3448 39.3391 22.5402 39.4208 22.8228C40.1025 25.1704 42.5202 31.3193 45.4857 31.576C47.2184 31.7186 49.1394 29.7579 51.0361 25.8849C51.1902 25.5686 51.5648 25.4263 51.8902 25.5618C52.2148 25.6964 52.3796 26.0603 52.2659 26.3937L47.7463 39.5994C47.6536 39.8691 47.4003 40.0499 47.1154 40.0499ZM18.2581 38.7167H46.6385L49.2504 31.085C47.9882 32.4209 46.7064 33.0168 45.3698 32.9046C42.0853 32.6189 39.8316 27.886 38.7837 25.104C36.9328 30.2706 34.8664 32.8024 32.4914 32.8302C32.4785 32.8302 32.4662 32.831 32.4533 32.831C29.1341 32.831 26.5718 27.7426 25.411 24.9358C23.4304 30.1623 21.3049 32.7608 18.9364 32.8669C17.7221 32.9138 16.6647 32.3088 15.7542 31.4112L18.2581 38.7167Z" fill="#3025E0" stroke="#3025E0" stroke-width="0.533333"/>
<path d="M47.1169 45.3833H17.7836C17.4151 45.3833 17.1172 45.085 17.1172 44.7165V39.3832C17.1172 39.0147 17.4151 38.7168 17.7836 38.7168C18.1521 38.7168 18.4504 39.0147 18.4504 39.3832V44.0501H46.4501V39.3832C46.4501 39.0147 46.7484 38.7168 47.1169 38.7168C47.4854 38.7168 47.7834 39.0147 47.7834 39.3832V44.7165C47.7834 45.085 47.4854 45.3833 47.1169 45.3833Z" fill="#3025E0" stroke="#3025E0" stroke-width="0.533333"/>
<path d="M25.6679 23.6741C24.4102 23.6741 23.3867 22.6506 23.3867 21.3925C23.3867 20.1348 24.4102 19.1113 25.6679 19.1113C26.926 19.1113 27.9495 20.1352 27.9495 21.3929C27.9495 22.6506 26.926 23.6741 25.6679 23.6741ZM25.6679 20.4449C25.1453 20.4449 24.7199 20.8703 24.7199 21.3929C24.7199 21.9159 25.1453 22.3408 25.6679 22.3408C26.1909 22.3408 26.6158 21.9155 26.6158 21.3929C26.6158 20.8699 26.1909 20.4449 25.6679 20.4449Z" fill="#3025E0" stroke="#3025E0" stroke-width="0.533333"/>
<path d="M38.5859 23.6741C37.3282 23.6741 36.3047 22.6506 36.3047 21.3925C36.3047 20.1348 37.3282 19.1113 38.5859 19.1113C39.8439 19.1113 40.8674 20.1352 40.8674 21.3929C40.8674 22.6506 39.8439 23.6741 38.5859 23.6741ZM38.5859 20.4449C38.0633 20.4449 37.6379 20.8703 37.6379 21.3929C37.6379 21.9159 38.0633 22.3408 38.5859 22.3408C39.1089 22.3408 39.5342 21.9159 39.5342 21.3929C39.5342 20.8703 39.1089 20.4449 38.5859 20.4449Z" fill="#3025E0" stroke="#3025E0" stroke-width="0.533333"/>
<path d="M51.5042 26.9041C50.2461 26.9041 49.2227 25.8807 49.2227 24.623C49.2227 23.3653 50.2461 22.3418 51.5042 22.3418C52.7619 22.3418 53.7854 23.3653 53.7854 24.623C53.7854 25.8807 52.7619 26.9041 51.5042 26.9041ZM51.5042 23.675C50.9812 23.675 50.5563 24.1 50.5563 24.623C50.5563 25.146 50.9812 25.5709 51.5042 25.5709C52.0268 25.5709 52.4522 25.146 52.4522 24.623C52.4522 24.1 52.0268 23.675 51.5042 23.675Z" fill="#3025E0" stroke="#3025E0" stroke-width="0.533333"/>
<path d="M13.3984 26.9041C12.1407 26.9041 11.1172 25.8807 11.1172 24.623C11.1172 23.3653 12.1407 22.3418 13.3984 22.3418C14.6564 22.3418 15.6799 23.3653 15.6799 24.623C15.6799 25.8807 14.6561 26.9041 13.3984 26.9041ZM13.3984 23.675C12.8758 23.675 12.4504 24.1 12.4504 24.623C12.4504 25.146 12.8758 25.5709 13.3984 25.5709C13.9214 25.5709 14.3467 25.146 14.3467 24.623C14.3467 24.1 13.9214 23.675 13.3984 23.675Z" fill="#3025E0" stroke="#3025E0" stroke-width="0.533333"/>
</svg>
