<svg width="64" height="64" viewBox="0 0 64 64" fill="none" xmlns="http://www.w3.org/2000/svg">
<path d="M37.1056 53.3285H37.0932C36.1698 53.3285 35.3665 52.9973 34.7122 52.3472C34.0704 51.7012 33.7391 50.9186 33.7267 50.0159L18.3768 46.4176C18.2195 46.7157 18.0124 46.9931 17.7598 47.2499C17.1056 47.9082 16.3023 48.2395 15.3748 48.2395C14.4431 48.2395 13.6398 47.9082 12.9855 47.2499C12.3313 46.5956 12 45.7923 12 44.8606C12 43.9372 12.3313 43.1339 12.9855 42.4755C13.441 42.0242 13.9627 41.7219 14.5507 41.5811V26.0863C13.971 25.9414 13.4493 25.6432 12.9979 25.196C12.3437 24.5418 12.0124 23.7385 12.0124 22.8109C12.0124 21.8834 12.3437 21.0842 12.9979 20.4258C13.6522 19.7716 14.4555 19.4362 15.383 19.4362C16.1698 19.4362 16.8654 19.6764 17.4617 20.1443L23.6108 15.3907C23.4286 14.9766 23.3375 14.5252 23.3375 14.0408C23.3375 13.1132 23.6646 12.3099 24.323 11.6557C24.9814 11.0014 25.7847 10.666 26.7122 10.666C27.6439 10.666 28.4431 11.0014 29.1014 11.6557C29.7391 12.2934 30.0704 13.0718 30.087 13.9704L45.4369 17.5604C45.5942 17.2623 45.7971 16.9807 46.0497 16.7281C46.7081 16.0697 47.5114 15.7385 48.4389 15.7385C49.3665 15.7385 50.1698 16.0739 50.824 16.7281C51.4783 17.3865 51.8095 18.1898 51.8095 19.1174C51.8095 20.0408 51.4824 20.8441 50.824 21.4983C50.3727 21.9497 49.8509 22.2519 49.2671 22.3927V37.929C49.8509 38.0697 50.3727 38.3679 50.824 38.8192C51.4783 39.4776 51.8095 40.2809 51.8095 41.2085C51.8095 42.1319 51.4824 42.9393 50.8282 43.5977C50.1698 44.2519 49.3706 44.5832 48.4431 44.5832C48.4431 44.5832 48.4389 44.5832 48.4348 44.5832C47.6439 44.5832 46.94 44.343 46.3437 43.8627L40.207 48.608C40.3851 49.0221 40.4762 49.4735 40.4762 49.9579C40.4762 50.8855 40.1449 51.6888 39.4948 52.3472C38.8406 53.0014 38.0373 53.3327 37.1139 53.3327L37.1056 53.3285ZM37.0973 51.6722C37.5859 51.6722 37.9669 51.5149 38.3106 51.1712C38.6501 50.8275 38.8116 50.4424 38.8075 49.9538C38.8075 49.548 38.6957 49.2085 38.4638 48.9103C38.4182 48.8523 38.3685 48.7985 38.3147 48.7447C37.971 48.401 37.5859 48.2395 37.0973 48.2395C36.6087 48.2395 36.2236 48.3969 35.8799 48.7405C35.6439 48.9807 35.4948 49.2416 35.4286 49.548V49.5563C35.3996 49.6846 35.3872 49.8172 35.3872 49.9579C35.3872 50.4466 35.5445 50.8358 35.8882 51.1795C36.2277 51.519 36.6128 51.6846 37.1056 51.6764L37.0973 51.6722ZM18.7412 44.8027L34.0952 48.401C34.2526 48.1029 34.4555 47.8254 34.7081 47.5728C35.1636 47.1215 35.6853 46.8234 36.2733 46.6826V31.167C35.6894 31.0221 35.1718 30.724 34.7246 30.2726C34.087 29.6308 33.7598 28.8524 33.7433 27.9538L18.3892 24.3679C18.2319 24.6702 18.0248 24.9517 17.7723 25.2043C17.3168 25.6598 16.7909 25.9579 16.2029 26.0987V41.5894C16.6584 41.7012 17.0766 41.9082 17.4534 42.2064L23.5942 37.461C23.412 37.047 23.3209 36.5956 23.3209 36.1111C23.3209 35.1836 23.6563 34.3803 24.3106 33.7261C24.766 33.2706 25.2878 32.9724 25.8799 32.8316V28.6702C25.8799 28.2147 26.2526 27.842 26.7081 27.842C27.1636 27.842 27.5362 28.2147 27.5362 28.6702V32.8358C28.1159 32.9807 28.6335 33.2789 29.0849 33.7261C29.7267 34.3637 30.058 35.1463 30.0745 36.049L34.3354 37.047C34.7826 37.1505 35.0559 37.5977 34.9524 38.0408C34.8489 38.4838 34.4017 38.7613 33.9586 38.6577L29.706 37.6598C29.5487 37.9621 29.3416 38.2395 29.0849 38.4921C28.4348 39.1463 27.6315 39.4817 26.6998 39.4817C25.9089 39.4817 25.2091 39.2374 24.6128 38.7613L18.472 43.5066C18.646 43.9041 18.7371 44.3389 18.7453 44.7985L18.7412 44.8027ZM37.9255 46.6784C38.3851 46.7902 38.8033 46.9973 39.1801 47.2996L45.3251 42.5501C45.1511 42.1526 45.0642 41.7219 45.0559 41.2623L39.9213 40.0532C39.4741 39.9497 39.2008 39.5025 39.3043 39.0594C39.4079 38.6122 39.8551 38.3348 40.3023 38.4424L45.4327 39.6515C45.5901 39.3534 45.793 39.0801 46.0414 38.8275C46.4969 38.3762 47.0186 38.078 47.6066 37.9372V22.401C47.147 22.2892 46.7246 22.0822 46.3478 21.7799L40.207 26.5294C40.3892 26.9476 40.4803 27.3989 40.4803 27.8834C40.4803 28.8109 40.1491 29.6143 39.499 30.2726C39.0435 30.7281 38.5176 31.0304 37.9296 31.1712V46.6784H37.9255ZM15.3706 43.1463C14.882 43.1463 14.4928 43.3078 14.1491 43.6515C13.8096 43.9952 13.648 44.3803 13.648 44.8648C13.648 45.3534 13.8054 45.7385 14.1491 46.0822C14.4928 46.4258 14.882 46.5873 15.3706 46.5873C15.8551 46.5873 16.2402 46.4258 16.5839 46.0822C16.8282 45.8379 16.9772 45.5728 17.0435 45.2706C17.0683 45.1463 17.0849 45.0138 17.0807 44.8731C17.0807 44.459 16.9689 44.1153 16.7329 43.8213C16.6874 43.7633 16.6377 43.7095 16.588 43.6598C16.2402 43.312 15.8551 43.1505 15.3706 43.1505V43.1463ZM48.4348 42.9269C48.9234 42.9269 49.3043 42.7695 49.648 42.4258C49.9876 42.0822 50.1491 41.6971 50.1449 41.2085C50.1449 40.7198 49.9876 40.3348 49.6439 39.9911C49.3043 39.6515 48.9193 39.49 48.4348 39.49C47.9462 39.49 47.5611 39.6474 47.2174 39.9911C46.9814 40.2271 46.8323 40.4921 46.7619 40.7944C46.7329 40.9227 46.7205 41.0594 46.7205 41.2043C46.7205 41.606 46.8323 41.9455 47.0683 42.2437C47.0683 42.2437 47.0725 42.2519 47.0766 42.2561C47.1222 42.3182 47.1718 42.3762 47.2298 42.43C47.5652 42.7613 47.9503 42.9227 48.4389 42.9227L48.4348 42.9269ZM25.3251 37.1505C25.3706 37.2085 25.4244 37.2623 25.4783 37.3203C25.8261 37.6681 26.2112 37.8296 26.6957 37.8296C27.1801 37.8296 27.5652 37.6681 27.9089 37.3244C28.1532 37.0801 28.3064 36.8151 28.3727 36.5128C28.3727 36.5128 28.3727 36.5128 28.3727 36.5087C28.4017 36.3844 28.4141 36.2478 28.4141 36.1111C28.4141 35.6267 28.2526 35.2416 27.9089 34.8979C27.5652 34.5542 27.1843 34.3927 26.7039 34.3927C26.207 34.3927 25.8219 34.5542 25.4783 34.8979C25.1346 35.2416 24.9731 35.6267 24.9731 36.1153C24.9731 36.5169 25.089 36.8565 25.3209 37.1588L25.3251 37.1505ZM35.4369 27.4818C35.412 27.6101 35.3996 27.7426 35.3996 27.8834C35.3996 28.372 35.5569 28.7613 35.9006 29.1049C36.2402 29.4445 36.6211 29.606 37.1014 29.606C37.5983 29.606 37.9834 29.4445 38.323 29.1049C38.6667 28.7613 38.824 28.372 38.824 27.8834C38.824 27.4776 38.7081 27.1339 38.472 26.8316C38.472 26.8316 38.472 26.8275 38.4679 26.8234C38.4224 26.7654 38.3727 26.7116 38.323 26.6577C37.9834 26.314 37.5983 26.1567 37.1097 26.1567C36.6211 26.1567 36.236 26.3182 35.8965 26.6577C35.6563 26.902 35.5031 27.1712 35.4327 27.4776L35.4369 27.4818ZM18.7536 22.7488L34.1035 26.3348C34.2609 26.0325 34.4679 25.7509 34.7246 25.4942C35.3789 24.8358 36.1822 24.5004 37.1139 24.5004C37.9048 24.5004 38.6046 24.7405 39.1967 25.2167L45.3375 20.4673C45.1636 20.0697 45.0725 19.6391 45.0642 19.1795L29.7184 15.5936C29.5611 15.8958 29.354 16.1774 29.0973 16.4341C28.646 16.8855 28.1242 17.1836 27.5404 17.3244V22.4548C27.5404 22.9103 27.1677 23.283 26.7122 23.283C26.2567 23.283 25.8841 22.9103 25.8841 22.4548V17.3285C25.4244 17.2167 25.0021 17.0097 24.6253 16.7074L18.4803 21.4569C18.6542 21.8544 18.7495 22.2892 18.7578 22.753L18.7536 22.7488ZM15.3789 21.0967C14.8944 21.0967 14.5093 21.2581 14.1656 21.6018C13.8219 21.9455 13.6646 22.3306 13.6646 22.8151C13.6646 23.3037 13.8219 23.6888 14.1656 24.0325C14.5052 24.372 14.8903 24.5335 15.3748 24.5377C15.8675 24.5377 16.2567 24.3762 16.6004 24.0325C16.8406 23.7923 16.9896 23.5273 17.0559 23.2209V23.2043C17.0849 23.0842 17.1014 22.9559 17.1014 22.8192C17.1014 22.4134 16.9855 22.0697 16.7495 21.7675C16.7039 21.7095 16.6542 21.6557 16.6004 21.6018C16.2609 21.2623 15.8716 21.1008 15.383 21.1008L15.3789 21.0967ZM47.0683 20.1608C47.0683 20.1608 47.0683 20.165 47.0725 20.1691C47.118 20.2271 47.1677 20.2851 47.2215 20.3389C47.5611 20.6743 47.9462 20.8358 48.4348 20.8358C48.9193 20.8358 49.3043 20.6743 49.648 20.3306C49.9917 19.9869 50.1491 19.6018 50.1491 19.1174C50.1491 18.6287 49.9917 18.2437 49.648 17.9C49.3043 17.5563 48.9193 17.3989 48.4348 17.3948C47.9462 17.3948 47.5569 17.5563 47.2132 17.9C46.9731 18.1401 46.824 18.4051 46.7578 18.7074V18.7157C46.7288 18.8399 46.7164 18.9724 46.7164 19.1132C46.7164 19.5149 46.8323 19.8586 47.0642 20.1567L47.0683 20.1608ZM25.3458 15.0967C25.3913 15.1546 25.441 15.2085 25.4948 15.2623C25.8344 15.6018 26.2236 15.7633 26.7122 15.7633C27.1967 15.7633 27.5818 15.6018 27.9255 15.2582C28.1698 15.0139 28.3188 14.7488 28.3851 14.4424C28.4099 14.3223 28.4265 14.1898 28.4224 14.0532C28.4224 13.5604 28.265 13.1753 27.9213 12.8316C27.5776 12.488 27.1925 12.3265 26.7039 12.3265C26.2195 12.3265 25.8302 12.488 25.4824 12.8316C25.1429 13.1712 24.9814 13.5563 24.9855 14.0449C24.9855 14.4507 25.1014 14.7944 25.3375 15.0925V15.0967H25.3458Z" fill="#3025E0"/>
</svg>
