<svg width="64" height="64" viewBox="0 0 64 64" fill="none" xmlns="http://www.w3.org/2000/svg">
<path d="M27.9987 33.3333C33.8806 33.3333 38.6654 28.5486 38.6654 22.6667C38.6654 16.7847 33.8806 12 27.9987 12C22.1168 12 17.332 16.7847 17.332 22.6667C17.332 28.5486 22.1168 33.3333 27.9987 33.3333ZM27.9987 13.4222C33.0959 13.4222 37.2432 17.5694 37.2432 22.6667C37.2432 27.7639 33.0959 31.9111 27.9987 31.9111C22.9015 31.9111 18.7542 27.7639 18.7542 22.6667C18.7542 17.5695 22.9015 13.4222 27.9987 13.4222Z" fill="#3025E0" stroke="#3025E0" stroke-width="0.533333"/>
<path d="M31.3807 19.7237H30.0269C29.9038 19.3055 29.6576 18.8873 29.4115 18.5288H31.3807C31.7499 18.5288 31.9961 18.2899 31.9961 17.9314C31.9961 17.573 31.7499 17.334 31.3807 17.334H24.6115C24.2422 17.334 23.9961 17.573 23.9961 17.9314C23.9961 18.2899 24.2422 18.5288 24.6115 18.5288H26.7653C27.5653 18.5288 28.3653 19.0068 28.673 19.7237H24.6115C24.2422 19.7237 23.9961 19.9626 23.9961 20.3211C23.9961 20.6795 24.2422 20.9185 24.6115 20.9185H28.8576C28.7346 21.9341 27.8115 22.7107 26.7653 22.7107H24.6115H24.5499C24.4884 22.7107 24.4884 22.7107 24.4269 22.7107C24.3653 22.7107 24.3653 22.7705 24.3038 22.7705C24.3038 22.7705 24.2422 22.7705 24.2422 22.8302C24.1807 22.89 24.1192 22.9497 24.1192 23.0094C24.1192 23.0692 24.1192 23.0692 24.1192 23.1289V23.2484V23.3082C24.1192 23.3679 24.1807 23.4874 24.1807 23.5471C24.1807 23.5471 24.1807 23.6069 24.2422 23.6069L27.9346 27.7888C28.1807 28.0277 28.5499 28.0875 28.7961 27.8485C29.0422 27.6096 29.1038 27.2511 28.8576 27.0121L25.9653 23.9056H26.7653C28.4884 23.9056 29.9653 22.5913 30.1499 20.9185H31.3807C31.7499 20.9185 31.9961 20.6795 31.9961 20.3211C31.9961 19.9626 31.7499 19.7237 31.3807 19.7237Z" fill="#3025E0"/>
<path d="M52.1454 29.1855H42.664C42.0089 29.1855 41.4788 29.7157 41.4788 30.3708C41.4788 31.0259 42.0089 31.556 42.664 31.556H49.2843L34.3677 46.4726L25.7242 37.8291C25.2612 37.3661 24.5112 37.3661 24.0483 37.8291L11.0113 50.866C10.5483 51.329 10.5483 52.079 11.0113 52.5419C11.2428 52.7734 11.5461 52.8891 11.8493 52.8891C12.1525 52.8891 12.4558 52.7734 12.6873 52.5419L24.8863 40.3428L33.5298 48.9864C33.9928 49.4494 34.7428 49.4494 35.2057 48.9864L50.9603 33.2318V39.8521C50.9603 40.5072 51.4904 41.0373 52.1455 41.0373C52.8006 41.0373 53.3307 40.5072 53.3307 39.8521V30.3707C53.3306 29.7157 52.8005 29.1855 52.1454 29.1855Z" fill="#3025E0"/>
</svg>
