<svg width="25" height="24" viewBox="0 0 25 24" fill="none" xmlns="http://www.w3.org/2000/svg">
<path d="M22.0963 20.4696L17.4022 15.7765C18.7627 14.1431 19.4412 12.048 19.2964 9.92715C19.1516 7.80629 18.1947 5.82289 16.6248 4.38956C15.0549 2.95623 12.9928 2.18333 10.8676 2.23163C8.7423 2.27993 6.71748 3.14571 5.21431 4.64888C3.71114 6.15205 2.84536 8.17687 2.79706 10.3021C2.74876 12.4274 3.52166 14.4894 4.95499 16.0593C6.38832 17.6293 8.37172 18.5861 10.4926 18.7309C12.6134 18.8757 14.7085 18.1973 16.3419 16.8368L21.035 21.5308C21.1047 21.6005 21.1874 21.6558 21.2785 21.6935C21.3695 21.7312 21.4671 21.7506 21.5656 21.7506C21.6642 21.7506 21.7618 21.7312 21.8528 21.6935C21.9439 21.6558 22.0266 21.6005 22.0963 21.5308C22.166 21.4612 22.2212 21.3784 22.2589 21.2874C22.2967 21.1963 22.3161 21.0988 22.3161 21.0002C22.3161 20.9017 22.2967 20.8041 22.2589 20.713C22.2212 20.622 22.166 20.5393 22.0963 20.4696ZM4.31564 10.5002C4.31564 9.16519 4.71152 7.86015 5.45322 6.75011C6.19492 5.64008 7.24913 4.77492 8.48253 4.26403C9.71593 3.75314 11.0731 3.61946 12.3825 3.87991C13.6919 4.14036 14.8946 4.78324 15.8386 5.72724C16.7826 6.67125 17.4255 7.87398 17.6859 9.18335C17.9464 10.4927 17.8127 11.8499 17.3018 13.0833C16.7909 14.3167 15.9258 15.3709 14.8157 16.1126C13.7057 16.8543 12.4007 17.2502 11.0656 17.2502C9.27604 17.2482 7.56031 16.5364 6.29487 15.271C5.02942 14.0056 4.31763 12.2898 4.31564 10.5002Z" fill="#2E2A94"/>
</svg>
