<svg width="34" height="32" viewBox="0 0 34 32" fill="none" xmlns="http://www.w3.org/2000/svg">
<path d="M10.3559 6.02971H23.6693C25.2784 5.80036 26.7684 6.91848 26.9977 8.52702C27.0372 8.80265 27.0372 9.08244 26.9977 9.35807V25.9999L23.6693 22.6715H10.3559C8.74736 22.9009 7.25687 21.7833 7.02753 20.1742C6.988 19.8986 6.988 19.6188 7.02753 19.3432V9.35807C6.79819 7.74953 7.91579 6.25905 9.52484 6.02971C9.80047 5.99018 10.0803 5.99018 10.3559 6.02971Z" fill="white"/>
<path fill-rule="evenodd" clip-rule="evenodd" d="M16.9345 11.0202C16.9449 10.9858 16.9761 10.9619 17.012 10.9619C17.0479 10.9619 17.0796 10.9858 17.0895 11.0202C17.0895 11.0202 17.232 11.4971 17.3844 12.0083C17.6272 12.8232 18.2648 13.4603 19.0792 13.7031C19.5905 13.8555 20.0673 13.998 20.0673 13.998C20.1017 14.0084 20.1256 14.0396 20.1256 14.0755C20.1256 14.1114 20.1017 14.1431 20.0673 14.153C20.0673 14.153 19.5905 14.2955 19.0792 14.4479C18.2643 14.6907 17.6272 15.3283 17.3844 16.1427C17.232 16.6539 17.0895 17.1308 17.0895 17.1308C17.0791 17.1651 17.0479 17.1891 17.012 17.1891C16.9761 17.1891 16.9444 17.1651 16.9345 17.1308C16.9345 17.1308 16.792 16.6539 16.6397 16.1427C16.3968 15.3278 15.7592 14.6907 14.9448 14.4479C14.4336 14.2955 13.9567 14.153 13.9567 14.153C13.9224 14.1426 13.8984 14.1114 13.8984 14.0755C13.8984 14.0396 13.9224 14.0079 13.9567 13.998C13.9567 13.998 14.4336 13.8555 14.9448 13.7031C15.7597 13.4603 16.3968 12.8227 16.6397 12.0083C16.792 11.4971 16.9345 11.0202 16.9345 11.0202Z" fill="#242177"/>
</svg>
