<svg width="26" height="22" viewBox="0 0 26 22" fill="none" xmlns="http://www.w3.org/2000/svg">
<path d="M3.37521 17.3964H6.50061V21.2345C6.50061 21.4804 6.63889 21.7047 6.85452 21.8114C6.94124 21.8534 7.03382 21.875 7.12522 21.875C7.26467 21.875 7.40295 21.827 7.51546 21.7347L12.8066 17.3964H15.537C15.8816 17.3964 16.1616 17.1097 16.1616 16.7571C16.1616 16.4045 15.8816 16.1179 15.537 16.1179H12.5874C12.4456 16.1179 12.3074 16.1682 12.1972 16.2582L7.75 19.9031V16.7571C7.75 16.4045 7.46992 16.1179 7.1254 16.1179H3.3754C2.34181 16.1179 1.5004 15.2567 1.5004 14.1988V3.32382C1.5004 2.26595 2.34181 1.40477 3.3754 1.40477H19.6258C20.6594 1.40477 21.5008 2.26595 21.5008 3.32382V7.92953C21.5008 8.28214 21.7809 8.5688 22.1254 8.5688C22.4699 8.5688 22.75 8.28214 22.75 7.92953V3.32382C22.75 1.56069 21.3484 0.125 19.6246 0.125H3.3754C1.65274 0.125 0.25 1.55949 0.25 3.32382V14.1988C0.25 15.9619 1.65157 17.3976 3.3754 17.3976L3.37521 17.3964Z" fill="white"/>
<path d="M21.8696 10.3463C21.7925 10.0679 21.5393 9.875 21.25 9.875C20.9607 9.875 20.7075 10.0679 20.6304 10.3463C19.9819 12.6934 19.5684 13.1068 17.2213 13.7554C16.9429 13.8325 16.75 14.0857 16.75 14.375C16.75 14.6643 16.9429 14.9175 17.2213 14.9946C19.5684 15.6431 19.9818 16.0566 20.6304 18.4037C20.7075 18.6821 20.9607 18.875 21.25 18.875C21.5393 18.875 21.7925 18.6821 21.8696 18.4037C22.5181 16.0566 22.9316 15.6432 25.2787 14.9946C25.5571 14.9175 25.75 14.6643 25.75 14.375C25.75 14.0857 25.5571 13.8325 25.2787 13.7554C22.9316 13.1068 22.5182 12.6934 21.8696 10.3463ZM21.25 16.2952C20.8112 15.3742 20.2495 14.8124 19.3285 14.3736C20.2495 13.9348 20.8112 13.3731 21.25 12.4521C21.6888 13.3731 22.2505 13.9348 23.1715 14.3736C22.2505 14.8124 21.6888 15.3742 21.25 16.2952Z" fill="white"/>
<path d="M4.62465 5.375H18.3754C18.7199 5.375 19 5.03901 19 4.6257C19 4.2124 18.7199 3.87641 18.3754 3.87641L4.62465 3.875C4.2801 3.875 4 4.21099 4 4.6243C4 5.0376 4.2801 5.37359 4.62465 5.37359V5.375Z" fill="white"/>
<path d="M19 8.37641C19 7.96272 18.7199 7.62641 18.3754 7.62641L4.62465 7.625C4.2801 7.625 4 7.96131 4 8.375C4 8.78869 4.2801 9.125 4.62465 9.125H18.3754C18.7199 9.125 19 8.78869 19 8.375V8.37641Z" fill="white"/>
<path d="M4.62467 11.375C4.28011 11.375 4 11.7113 4 12.125C4 12.5387 4.28011 12.875 4.62467 12.875H14.6253C14.9699 12.875 15.25 12.5387 15.25 12.125C15.25 11.7113 14.9699 11.375 14.6253 11.375H4.62467Z" fill="white"/>
</svg>
