<svg width="24" height="24" viewBox="0 0 24 24" fill="none" xmlns="http://www.w3.org/2000/svg">
<path d="M16.1227 15.9171C16.666 15.377 17.0967 14.7344 17.3898 14.0267C17.683 13.3189 17.8328 12.56 17.8305 11.7939C17.8305 11.595 17.7515 11.4043 17.6108 11.2636C17.4701 11.123 17.2794 11.0439 17.0805 11.0439C16.8816 11.0439 16.6908 11.123 16.5501 11.2636C16.4095 11.4043 16.3305 11.595 16.3305 11.7939C16.3305 12.9427 15.8741 14.0443 15.0619 14.8566C14.2496 15.6689 13.1479 16.1252 11.9992 16.1252C10.8505 16.1252 9.74883 15.6689 8.93656 14.8566C8.1243 14.0443 7.66797 12.9427 7.66797 11.7939C7.66797 11.595 7.58895 11.4043 7.4483 11.2636C7.30765 11.123 7.11688 11.0439 6.91797 11.0439C6.71906 11.0439 6.52829 11.123 6.38764 11.2636C6.24699 11.4043 6.16797 11.595 6.16797 11.7939C6.17023 13.2095 6.68697 14.5759 7.62193 15.6387C8.55688 16.7015 9.84629 17.3882 11.25 17.5708V19.4998H9.37497C9.17606 19.4998 8.98529 19.5788 8.84464 19.7195C8.70399 19.8601 8.62497 20.0509 8.62497 20.2498C8.62497 20.4487 8.70399 20.6395 8.84464 20.7802C8.98529 20.9208 9.17606 20.9998 9.37497 20.9998H14.625C14.8239 20.9998 15.0146 20.9208 15.1553 20.7802C15.296 20.6395 15.375 20.4487 15.375 20.2498C15.375 20.0509 15.296 19.8601 15.1553 19.7195C15.0146 19.5788 14.8239 19.4998 14.625 19.4998H12.75V17.5716C14.027 17.4108 15.2139 16.8286 16.1227 15.9171Z" fill="#585EF9"/>
<path d="M11.9991 14.8973C12.845 14.8963 13.6559 14.5598 14.254 13.9617C14.8521 13.3636 15.1886 12.5526 15.1896 11.7068V6.378C15.1896 5.53183 14.8535 4.72031 14.2551 4.12198C13.6568 3.52364 12.8453 3.1875 11.9991 3.1875C11.1529 3.1875 10.3414 3.52364 9.74307 4.12198C9.14473 4.72031 8.80859 5.53183 8.80859 6.378V11.7068C8.80959 12.5526 9.14605 13.3636 9.74417 13.9617C10.3423 14.5598 11.1532 14.8963 11.9991 14.8973Z" fill="#585EF9"/>
</svg>
