<svg width="56" height="56" viewBox="0 0 56 56" fill="none" xmlns="http://www.w3.org/2000/svg">
<path d="M0 4C0 1.79086 1.79086 0 4 0H52C54.2091 0 56 1.79086 56 4V52C56 54.2091 54.2091 56 52 56H4C1.79086 56 0 54.2091 0 52V4Z" fill="#D5DEFF"/>
<path fill-rule="evenodd" clip-rule="evenodd" d="M14.9469 23.8604C14.8638 23.9139 14.771 23.9504 14.6738 23.9678C14.5766 23.9853 14.4769 23.9834 14.3804 23.9622C14.2839 23.9411 14.1926 23.9011 14.1116 23.8445C14.0306 23.7879 13.9616 23.7159 13.9085 23.6326C13.8554 23.5493 13.8193 23.4563 13.8023 23.359C13.7852 23.2618 13.7876 23.162 13.8091 23.0657C13.8307 22.9693 13.8711 22.8781 13.928 22.7973C13.9849 22.7166 14.0572 22.6479 14.1408 22.5952L22.8137 17.0728C22.907 17.0132 23.0124 16.9751 23.1222 16.9611C23.232 16.9471 23.3435 16.9577 23.4488 16.992V16.9904L31.7318 19.6815L39.1691 13.5615L38.028 13.5013C37.8298 13.49 37.6442 13.4008 37.5116 13.2531C37.379 13.1054 37.3103 12.9112 37.3204 12.713C37.3305 12.5148 37.4187 12.3286 37.5656 12.1951C37.7125 12.0617 37.9063 11.9918 38.1045 12.0008L41.1764 12.1629C41.3754 12.1731 41.5622 12.2618 41.6957 12.4097C41.8293 12.5576 41.8986 12.7524 41.8885 12.9514C41.8869 12.98 41.8838 13.0085 41.879 13.0367L41.3711 16.0678C41.3557 16.1659 41.321 16.2601 41.2691 16.3447C41.2171 16.4294 41.1489 16.5029 41.0683 16.561C40.9878 16.6191 40.8965 16.6607 40.7998 16.6834C40.7031 16.706 40.6028 16.7092 40.5049 16.6929C40.4069 16.6766 40.3131 16.641 40.229 16.5882C40.1448 16.5354 40.072 16.4665 40.0146 16.3854C39.9573 16.3043 39.9166 16.2126 39.8949 16.1157C39.8732 16.0187 39.8709 15.9185 39.8882 15.8207L40.0646 14.7679L32.4021 21.0728C32.304 21.1644 32.1831 21.2281 32.052 21.2571C31.9209 21.2861 31.7845 21.2795 31.6568 21.238L23.3195 18.5292L14.9469 23.8604Z" fill="#7B87FF"/>
<path d="M20.6738 24.2754H25.7672V43.9979H20.6738V24.2754Z" fill="#7B87FF"/>
<path d="M29.3457 28.437H34.439V44H29.3457V28.437Z" fill="#2E2A94"/>
<path d="M38.0176 20.8374H43.1109V43.999H38.0176V20.8374Z" fill="#7B87FF"/>
<path d="M12 35.9043H17.0934V43.9987H12V35.9043Z" fill="#2E2A94"/>
</svg>
