<svg width="22" height="24" viewBox="0 0 22 24" fill="none" xmlns="http://www.w3.org/2000/svg">
<path d="M3.48333 5.25C3.28884 5.25 3.10231 5.32902 2.96479 5.46967C2.82726 5.61032 2.75 5.80109 2.75 6C2.75 6.19891 2.82726 6.38968 2.96479 6.53033C3.10231 6.67098 3.28884 6.75 3.48333 6.75H19.6167C19.8112 6.75 19.9977 6.67098 20.1352 6.53033C20.2727 6.38968 20.35 6.19891 20.35 6C20.35 5.80109 20.2727 5.61032 20.1352 5.46967C19.9977 5.32902 19.8112 5.25 19.6167 5.25H3.48333ZM3.48333 11.25C3.28884 11.25 3.10231 11.329 2.96479 11.4697C2.82726 11.6103 2.75 11.8011 2.75 12C2.75 12.1989 2.82726 12.3897 2.96479 12.5303C3.10231 12.671 3.28884 12.75 3.48333 12.75H19.6167C19.8112 12.75 19.9977 12.671 20.1352 12.5303C20.2727 12.3897 20.35 12.1989 20.35 12C20.35 11.8011 20.2727 11.6103 20.1352 11.4697C19.9977 11.329 19.8112 11.25 19.6167 11.25H3.48333ZM3.48333 17.25C3.28884 17.25 3.10231 17.329 2.96479 17.4697C2.82726 17.6103 2.75 17.8011 2.75 18C2.75 18.1989 2.82726 18.3897 2.96479 18.5303C3.10231 18.671 3.28884 18.75 3.48333 18.75H19.6167C19.8112 18.75 19.9977 18.671 20.1352 18.5303C20.2727 18.3897 20.35 18.1989 20.35 18C20.35 17.8011 20.2727 17.6103 20.1352 17.4697C19.9977 17.329 19.8112 17.25 19.6167 17.25H3.48333Z" fill="#2E2A94"/>
</svg>
