<svg width="64" height="64" viewBox="0 0 64 64" fill="none" xmlns="http://www.w3.org/2000/svg">
<path d="M35.4528 47.1095L39.426 56.3327C39.5836 56.6974 39.9271 56.9418 40.322 56.9719C40.3485 56.9737 40.3751 56.9754 40.4016 56.9754C40.7717 56.9754 41.1081 56.7878 41.3047 56.4726L44.6547 51.074L50.8784 52.3488C51.2679 52.4285 51.6646 52.2868 51.916 51.9787C52.1674 51.6707 52.2241 51.2528 52.0683 50.888L47.477 40.2271L48.1587 39.9368C50.3561 38.9966 51.6398 36.7709 51.3565 34.3983C51.3016 33.9344 51.2502 33.5236 51.2024 33.1535C51.013 31.6396 50.9174 30.88 51.0254 30.2692C51.1334 29.6583 51.4822 28.9766 52.178 27.6203C52.348 27.2875 52.5375 26.9192 52.7482 26.5031C53.8265 24.3712 53.3803 21.8393 51.638 20.205C51.3423 19.927 51.0732 19.6773 50.827 19.4489L50.719 19.3498C49.6018 18.3122 49.0405 17.7916 48.7306 17.2551C48.4208 16.7169 48.2508 15.9714 47.9108 14.4859L47.8896 14.3956C47.8117 14.0556 47.7267 13.6802 47.6275 13.2624C47.0822 10.9358 45.1133 9.28379 42.7282 9.151C42.2714 9.12621 41.8642 9.10496 41.4977 9.08726H41.4764C39.9519 9.00935 39.1888 8.97217 38.6062 8.75969C38.0219 8.54722 37.4128 8.08508 36.1982 7.16436C35.9007 6.93949 35.5696 6.68807 35.196 6.40831C33.2838 4.97588 30.7128 4.97588 28.8005 6.40831C28.4269 6.68807 28.0958 6.93772 27.7984 7.16436C26.5837 8.08508 25.9729 8.54722 25.3903 8.75969C24.8078 8.97217 24.0429 9.00935 22.5202 9.08548C22.1359 9.10496 21.7269 9.12444 21.2683 9.151C18.8833 9.28379 16.9126 10.9358 16.369 13.2624C16.2681 13.6926 16.1796 14.0769 16.0999 14.4257L16.0857 14.4841C15.7475 15.9714 15.5758 16.7169 15.2659 17.2534C14.9561 17.7899 14.3948 18.3104 13.2757 19.348L13.2368 19.3834C12.973 19.6278 12.6826 19.8987 12.3568 20.2032C10.6145 21.8393 10.1683 24.3695 11.2466 26.5031C11.4573 26.9192 11.6468 27.2892 11.8168 27.6203C12.5126 28.9766 12.8614 29.6583 12.9694 30.2692C13.0774 30.88 12.9818 31.6396 12.7924 33.1535C12.7463 33.5236 12.695 33.9361 12.6383 34.3983C12.355 36.7709 13.6405 38.9966 15.8361 39.9368C16.2628 40.1209 16.6452 40.2803 16.9887 40.4255L17.5589 40.6645L11.9407 52.733C11.7725 53.0925 11.8185 53.5121 12.0611 53.8273C12.3037 54.1424 12.6968 54.2965 13.0863 54.2274L19.3454 53.1332L22.5379 58.6257C22.7362 58.9656 23.1115 59.1692 23.5064 59.1533C23.9012 59.1356 24.2518 58.9001 24.42 58.5407L29.9426 46.6775L30.0949 46.6315C30.9572 46.373 31.5149 46.2331 31.9983 46.2331C32.618 46.2331 33.3493 46.458 34.8047 46.9077L35.4545 47.1078L35.4528 47.1095ZM49.3096 49.8593L44.3537 48.8448C43.9199 48.7562 43.4719 48.9492 43.2382 49.3246L40.5716 53.6219L37.9405 47.5132L38.392 47.4424C39.8669 47.2105 41.1878 46.3535 42.0147 45.0875C42.2555 44.7174 42.4715 44.3863 42.6645 44.0853L42.6964 44.034C43.5232 42.752 43.9393 42.1093 44.4139 41.7109C44.6086 41.548 44.853 41.394 45.1823 41.2258L45.5187 41.054L49.3096 49.854V49.8593ZM23.3506 55.8015L20.8097 51.4281C20.5866 51.0456 20.1458 50.8385 19.7084 50.9146L14.7259 51.7858L19.4782 41.5781L19.8359 41.9606C20.2201 42.3714 20.6256 42.9982 21.2949 44.0375C21.4967 44.3509 21.7234 44.6997 21.9783 45.091C23.0177 46.6811 24.76 47.5805 26.6439 47.5062L27.2247 47.4814L23.3506 55.8015ZM28.5615 44.8803C28.2092 44.9901 27.8161 45.1105 27.3734 45.2433C27.0494 45.3407 26.7254 45.3885 26.4067 45.3885C25.3514 45.3885 24.3705 44.8662 23.756 43.926C23.5046 43.5417 23.2833 43.2 23.085 42.8919C21.1851 39.9492 21.0364 39.8252 17.8174 38.4671C17.4774 38.3237 17.0985 38.1644 16.6736 37.982C15.3314 37.4065 14.5754 36.0981 14.7489 34.6479C14.8038 34.1893 14.8551 33.7821 14.9012 33.4156C15.3368 29.9487 15.3031 29.7592 13.7078 26.6483C13.5396 26.3207 13.3519 25.9542 13.143 25.5416C12.4843 24.2384 12.7463 22.7494 13.8105 21.7507C14.1097 21.471 14.3806 21.2178 14.6267 20.9894L14.7188 20.9044C17.2809 18.5282 17.3783 18.36 18.1538 14.9533C18.237 14.5886 18.3273 14.1902 18.4318 13.7422C18.7647 12.3204 19.9227 11.3483 21.3816 11.2669C21.8119 11.2439 22.1997 11.2244 22.5503 11.2067L22.6229 11.2031C26.1127 11.0296 26.2951 10.9641 29.0803 8.85353C29.3742 8.63044 29.7018 8.38255 30.0718 8.10633C31.2405 7.23165 32.7526 7.23165 33.9212 8.10633C34.2859 8.37901 34.6082 8.62335 34.8986 8.84468C37.6979 10.9659 37.8785 11.0314 41.3684 11.2049C41.7385 11.2226 42.1492 11.2439 42.6078 11.2687C44.0668 11.3501 45.223 12.3204 45.5559 13.744C45.6604 14.1937 45.7525 14.5939 45.8339 14.9551C46.6112 18.3618 46.7068 18.5282 49.2689 20.9061L49.345 20.977C49.5965 21.2089 49.8727 21.4657 50.1772 21.7525C51.2414 22.7511 51.5052 24.2402 50.8465 25.5434C50.6411 25.9489 50.457 26.3101 50.2906 26.6341C48.6881 29.7592 48.6545 29.9487 49.0901 33.4156L49.106 33.5484C49.1467 33.8795 49.1928 34.2442 49.2406 34.6479C49.4141 36.0981 48.658 37.4065 47.3159 37.982C46.891 38.1644 46.512 38.3237 46.1721 38.4671C42.9513 39.8234 42.8044 39.9474 40.908 42.8831C40.708 43.1929 40.4849 43.5382 40.2317 43.926C39.4313 45.1477 38.0113 45.6647 36.6143 45.2433C36.1929 45.1158 35.8175 45.0007 35.4775 44.8945L35.4262 44.8786C33.6857 44.3403 32.834 44.1048 31.9912 44.1048C31.1484 44.1048 30.2967 44.3403 28.5562 44.8786L28.5615 44.8803Z" fill="#3025E0"/>
<path d="M45.0259 26.4212C45.0259 19.2395 39.1829 13.3965 32.0012 13.3965C24.8196 13.3965 18.9766 19.2395 18.9766 26.4212C18.9766 33.6028 24.8196 39.4476 32.0012 39.4476C39.1829 39.4476 45.0259 33.6046 45.0259 26.4212ZM32.0012 37.3229C25.99 37.3229 21.1013 32.4324 21.1013 26.4212C21.1013 20.4099 25.9918 15.5212 32.0012 15.5212C38.0107 15.5212 42.9012 20.4117 42.9012 26.4212C42.9012 32.4306 38.0107 37.3229 32.0012 37.3229Z" fill="#3025E0"/>
<path d="M38.7421 22.7613C38.6731 22.5948 38.5403 22.4638 38.3756 22.3947C38.2941 22.3593 38.2056 22.3416 38.1171 22.3398H34.7175C34.3421 22.3398 34.0376 22.6444 34.0376 23.0198C34.0376 23.3951 34.3421 23.6997 34.7175 23.6997H36.4793L32.6777 27.5012L30.4414 25.2578C30.1776 24.9905 29.7474 24.9887 29.48 25.2543C29.48 25.2543 29.4782 25.2561 29.4765 25.2578L25.3969 29.3373C25.1296 29.6012 25.1278 30.0314 25.3934 30.2988C25.3934 30.2988 25.3952 30.3006 25.3969 30.3023C25.6608 30.5697 26.091 30.5715 26.3584 30.3059C26.3584 30.3059 26.3602 30.3041 26.3619 30.3023L29.9581 26.6991L32.1944 28.9425C32.4582 29.2098 32.8884 29.2116 33.1558 28.946C33.1558 28.946 33.1576 28.9443 33.1593 28.9425L37.4354 24.6594V26.4211C37.4354 26.7965 37.7399 27.101 38.1153 27.101C38.4907 27.101 38.7952 26.7965 38.7952 26.4211V23.0215C38.7952 22.933 38.7758 22.8445 38.7403 22.763L38.7421 22.7613Z" fill="#3025E0"/>
</svg>
