<svg width="56" height="56" viewBox="0 0 56 56" fill="none" xmlns="http://www.w3.org/2000/svg">
<path d="M0 4C0 1.79086 1.79086 0 4 0H52C54.2091 0 56 1.79086 56 4V52C56 54.2091 54.2091 56 52 56H4C1.79086 56 0 54.2091 0 52V4Z" fill="#D5DEFF"/>
<path d="M28.908 15.7065L28.0468 10H15.413C13.5106 10 12 11.55 12 13.4521V37.3426C12 39.2447 13.5106 40.7633 15.413 40.7633H27.3973L36.0313 27.6906V18.3681L28.908 15.7065Z" fill="#7B87FF"/>
<path d="M28.0488 10.0073L36.0097 18.3675H30.7104C29.2386 18.3675 28.0488 17.1777 28.0488 15.7059V10.0073Z" fill="#2E2A94"/>
<path d="M27.7461 27.9253H17.5387C17.1083 27.9253 16.7559 28.2777 16.7559 28.7082C16.7559 29.1388 17.1083 29.4908 17.5387 29.4908H27.7382C28.1687 29.4908 28.5211 29.1388 28.5211 28.7082C28.5211 28.2777 28.1768 27.9253 27.7461 27.9253Z" fill="white"/>
<path d="M17.5387 25.5773H25.4682C25.8987 25.5773 26.2511 25.225 26.2511 24.7944C26.2511 24.3639 25.8987 24.0117 25.4682 24.0117H17.5387C17.1083 24.0117 16.7559 24.3639 16.7559 24.7944C16.7559 25.225 17.1083 25.5773 17.5387 25.5773Z" fill="white"/>
<path d="M25.1628 31.9175H17.5387C17.1083 31.9175 16.7559 32.2699 16.7559 32.7001C16.7559 33.1308 17.1083 33.483 17.5387 33.483H25.1628C25.5935 33.483 25.9457 33.1308 25.9457 32.7001C25.9457 32.2699 25.5935 31.9175 25.1628 31.9175Z" fill="white"/>
<path d="M36.0046 26.1332C40.8579 26.8139 44.5915 30.9784 44.5915 36.0194C44.5915 41.5301 40.122 46 34.6113 46C30.8228 46 27.5194 43.8864 25.8363 40.7709C25.0692 39.3541 24.6309 37.7339 24.6309 36.0117C24.6309 30.5009 29.1005 26.0312 34.6113 26.0312C35.0811 26.0392 35.5427 26.0706 36.0046 26.1332Z" fill="#2E2A94"/>
<path d="M38.6205 35.8559L35.4033 39.3234V30.7756C35.4033 30.3451 35.0511 29.9927 34.6204 29.9927C34.19 29.9927 33.8378 30.3451 33.8378 30.7756V39.3234L30.597 35.8559C30.2995 35.5427 29.7985 35.519 29.4854 35.8165C29.1723 36.114 29.149 36.6073 29.4461 36.9204L34.0256 41.8438C34.1742 42.0005 34.3778 42.0943 34.5969 42.0943C34.816 42.0943 35.0194 42.0005 35.1684 41.8438L39.7475 36.9204C40.045 36.6073 40.0292 36.1063 39.7161 35.8165C39.4034 35.519 38.9181 35.5427 38.6205 35.8559Z" fill="white"/>
</svg>
