<svg width="56" height="56" viewBox="0 0 56 56" fill="none" xmlns="http://www.w3.org/2000/svg">
<path d="M0 4C0 1.79086 1.79086 0 4 0H52C54.2091 0 56 1.79086 56 4V52C56 54.2091 54.2091 56 52 56H4C1.79086 56 0 54.2091 0 52V4Z" fill="#D5DEFF"/>
<path fill-rule="evenodd" clip-rule="evenodd" d="M39.5592 44H16.544C16.2438 44 16 43.7562 16 43.456V12.544C16 12.2438 16.2438 12 16.544 12H39.5592C39.8593 12 40.1032 12.2438 40.1032 12.544V43.456C40.1032 43.7562 39.8593 44 39.5592 44Z" fill="#7B87FF"/>
<path fill-rule="evenodd" clip-rule="evenodd" d="M34.524 23.3705H21.544C21.2438 23.3705 21 23.1266 21 22.8265V19.544C21 19.2438 21.2438 19 21.544 19H34.524C34.8242 19 35.068 19.2438 35.068 19.544V22.8265C35.068 23.1266 34.8242 23.3705 34.524 23.3705Z" fill="white"/>
<path fill-rule="evenodd" clip-rule="evenodd" d="M34.5235 29.5418H25.9326C25.6325 29.5418 25.3887 29.298 25.3887 28.9979V25.7153C25.3887 25.4152 25.6325 25.1714 25.9326 25.1714H34.5235C34.8236 25.1714 35.0675 25.4152 35.0675 25.7153V28.9979C35.0675 29.298 34.8236 29.5418 34.5235 29.5418Z" fill="#2E2A94"/>
<path fill-rule="evenodd" clip-rule="evenodd" d="M34.5235 35.7313H25.9326C25.6325 35.7313 25.3887 35.4875 25.3887 35.1873V31.9048C25.3887 31.6047 25.6325 31.3608 25.9326 31.3608H34.5235C34.8236 31.3608 35.0675 31.6047 35.0675 31.9048V35.1873C35.0675 35.4875 34.8236 35.7313 34.5235 35.7313Z" fill="#2E2A94"/>
</svg>
