<svg width="56" height="56" viewBox="0 0 56 56" fill="none" xmlns="http://www.w3.org/2000/svg">
<rect width="56" height="56" rx="4" fill="#D5DEFF"/>
<path d="M35.3923 13.5239H16.1066C14.6864 13.5239 13.5352 14.6752 13.5352 16.0954V43.0954C13.5352 44.5155 14.6864 45.6668 16.1066 45.6668H35.3923C36.8125 45.6668 37.9637 44.5155 37.9637 43.0954V16.0954C37.9637 14.6752 36.8125 13.5239 35.3923 13.5239Z" fill="#2E2A94"/>
<path d="M42.4637 14.8094V39.2379C42.4637 40.6586 41.313 41.8094 39.8923 41.8094H20.6066C19.1859 41.8094 18.0352 40.6586 18.0352 39.2379V12.2379C18.0352 10.8172 19.1859 9.6665 20.6066 9.6665H36.0352L42.4637 14.8094Z" fill="#7B87FF"/>
<path d="M30.4102 19.8589C31.9262 19.8589 33.1553 21.088 33.1553 22.604C33.1553 24.12 31.9262 25.3491 30.4102 25.3491C28.8941 25.3491 27.665 24.12 27.665 22.604C27.665 21.088 28.8941 19.8589 30.4102 19.8589ZM30.4102 20.8491C29.4409 20.8491 28.6553 21.6347 28.6553 22.604C28.6553 23.5733 29.4409 24.3589 30.4102 24.3589C31.3794 24.3589 32.165 23.5733 32.165 22.604C32.165 21.6347 31.3794 20.8491 30.4102 20.8491Z" fill="white" stroke="#C4D3FF" stroke-width="0.135"/>
<path d="M28.7227 26.6089H32.0977C33.9243 26.6089 35.4053 28.0898 35.4053 29.9165V30.479C35.4053 30.7524 35.1835 30.9741 34.9102 30.9741C34.6368 30.9741 34.415 30.7524 34.415 30.479V29.9165C34.415 28.6366 33.3776 27.5991 32.0977 27.5991H28.7227C27.4427 27.5991 26.4053 28.6366 26.4053 29.9165V30.479C26.4053 30.7524 26.1835 30.9741 25.9102 30.9741C25.6368 30.9741 25.415 30.7524 25.415 30.479V29.9165C25.415 28.0898 26.896 26.6089 28.7227 26.6089Z" fill="white" stroke="#C4D3FF" stroke-width="0.135"/>
<path d="M42.4637 14.8094H36.678C36.3244 14.8094 36.0352 14.5201 36.0352 14.1665V9.6665L42.4637 14.8094Z" fill="#2E2A94"/>
</svg>
