<svg width="25" height="24" viewBox="0 0 25 24" fill="none" xmlns="http://www.w3.org/2000/svg">
<path d="M12.5684 2.25C10.64 2.25 8.75493 2.82183 7.15155 3.89317C5.54817 4.96451 4.29849 6.48726 3.56054 8.26884C2.82258 10.0504 2.6295 12.0108 3.00571 13.9021C3.38191 15.7934 4.31051 17.5307 5.67407 18.8943C7.03763 20.2579 8.77492 21.1865 10.6662 21.5627C12.5575 21.9389 14.5179 21.7458 16.2995 21.0078C18.0811 20.2699 19.6038 19.0202 20.6752 17.4168C21.7465 15.8134 22.3184 13.9284 22.3184 12C22.3156 9.41498 21.2875 6.93661 19.4596 5.10872C17.6318 3.28084 15.1534 2.25273 12.5684 2.25ZM7.51336 18.5156C8.05593 17.6671 8.80337 16.9688 9.68679 16.4851C10.5702 16.0013 11.5612 15.7478 12.5684 15.7478C13.5755 15.7478 14.5665 16.0013 15.4499 16.4851C16.3334 16.9688 17.0808 17.6671 17.6234 18.5156C16.1781 19.6397 14.3993 20.2499 12.5684 20.2499C10.7374 20.2499 8.95867 19.6397 7.51336 18.5156ZM9.56836 11.25C9.56836 10.6567 9.74431 10.0766 10.074 9.58329C10.4036 9.08994 10.8721 8.70542 11.4203 8.47836C11.9685 8.2513 12.5717 8.19189 13.1536 8.30764C13.7356 8.4234 14.2701 8.70912 14.6897 9.12868C15.1092 9.54824 15.395 10.0828 15.5107 10.6647C15.6265 11.2467 15.5671 11.8499 15.34 12.3981C15.1129 12.9462 14.7284 13.4148 14.2351 13.7444C13.7417 14.0741 13.1617 14.25 12.5684 14.25C11.7727 14.25 11.0097 13.9339 10.447 13.3713C9.88443 12.8087 9.56836 12.0456 9.56836 11.25ZM18.7334 17.4759C17.8969 16.2638 16.7207 15.3261 15.3527 14.7806C16.0876 14.2019 16.6238 13.4085 16.8868 12.5108C17.1498 11.6132 17.1266 10.6559 16.8203 9.77207C16.514 8.88825 15.94 8.12183 15.1779 7.5794C14.4159 7.03696 13.5037 6.74548 12.5684 6.74548C11.633 6.74548 10.7208 7.03696 9.9588 7.5794C9.19675 8.12183 8.62268 8.88825 8.31641 9.77207C8.01015 10.6559 7.98691 11.6132 8.24993 12.5108C8.51295 13.4085 9.04916 14.2019 9.78399 14.7806C8.41601 15.3261 7.23983 16.2638 6.40336 17.4759C5.3464 16.2873 4.65556 14.8185 4.41403 13.2464C4.17251 11.6743 4.39059 10.0658 5.04204 8.61478C5.69348 7.16372 6.75049 5.93192 8.0858 5.06769C9.42112 4.20346 10.9778 3.74367 12.5684 3.74367C14.1589 3.74367 15.7156 4.20346 17.0509 5.06769C18.3862 5.93192 19.4432 7.16372 20.0947 8.61478C20.7461 10.0658 20.9642 11.6743 20.7227 13.2464C20.4812 14.8185 19.7903 16.2873 18.7334 17.4759Z" fill="#2E2A94"/>
</svg>
