<svg width="30" height="37" viewBox="0 0 30 37" fill="none" xmlns="http://www.w3.org/2000/svg">
<path d="M22.3923 4.52393H3.10659C1.68642 4.52393 0.535156 5.67519 0.535156 7.09535V34.0954C0.535156 35.5155 1.68642 36.6668 3.10659 36.6668H22.3923C23.8125 36.6668 24.9637 35.5155 24.9637 34.0954V7.09535C24.9637 5.67519 23.8125 4.52393 22.3923 4.52393Z" fill="#2E2A94"/>
<path d="M29.4637 5.80936V30.2379C29.4637 31.6586 28.313 32.8094 26.8923 32.8094H7.60659C6.18587 32.8094 5.03516 31.6586 5.03516 30.2379V3.23793C5.03516 1.81722 6.18587 0.666504 7.60659 0.666504H23.0352L29.4637 5.80936Z" fill="#7B87FF"/>
<path d="M17.4102 10.8589C18.9262 10.8589 20.1553 12.088 20.1553 13.604C20.1553 15.12 18.9262 16.3491 17.4102 16.3491C15.8941 16.3491 14.665 15.12 14.665 13.604C14.665 12.088 15.8941 10.8589 17.4102 10.8589ZM17.4102 11.8491C16.4409 11.8491 15.6553 12.6347 15.6553 13.604C15.6553 14.5733 16.4409 15.3589 17.4102 15.3589C18.3794 15.3589 19.165 14.5733 19.165 13.604C19.165 12.6347 18.3794 11.8491 17.4102 11.8491Z" fill="white" stroke="#C4D3FF" stroke-width="0.135"/>
<path d="M15.7227 17.6089H19.0977C20.9243 17.6089 22.4053 19.0898 22.4053 20.9165V21.479C22.4053 21.7524 22.1835 21.9741 21.9102 21.9741C21.6368 21.9741 21.415 21.7524 21.415 21.479V20.9165C21.415 19.6366 20.3776 18.5991 19.0977 18.5991H15.7227C14.4427 18.5991 13.4053 19.6366 13.4053 20.9165V21.479C13.4053 21.7524 13.1835 21.9741 12.9102 21.9741C12.6368 21.9741 12.415 21.7524 12.415 21.479V20.9165C12.415 19.0898 13.896 17.6089 15.7227 17.6089Z" fill="white" stroke="#C4D3FF" stroke-width="0.135"/>
<path d="M29.4637 5.80936H23.678C23.3244 5.80936 23.0352 5.52008 23.0352 5.1665V0.666504L29.4637 5.80936Z" fill="#2E2A94"/>
</svg>
