<svg width="24" height="24" viewBox="0 0 24 24" fill="none" xmlns="http://www.w3.org/2000/svg">
<path d="M12.0015 12.6279C9.3475 12.6279 7.1875 10.4679 7.1875 7.81396C7.1875 5.16 9.3475 3 12.0015 3C14.6554 3 16.8154 5.16 16.8154 7.81396C16.8154 10.4679 14.6554 12.6279 12.0015 12.6279ZM12.0015 4.25581C10.0424 4.25581 8.44331 5.85489 8.44331 7.81396C8.44331 9.77303 10.0424 11.3721 12.0015 11.3721C13.9605 11.3721 15.5596 9.77303 15.5596 7.81396C15.5596 5.85489 13.9605 4.25581 12.0015 4.25581Z" fill="#2E2A94"/>
<path d="M19.1908 21C18.8476 21 18.5629 20.7153 18.5629 20.372C18.5629 17.4837 15.616 15.1395 11.9993 15.1395C8.38247 15.1395 5.4355 17.4837 5.4355 20.372C5.4355 20.7153 5.15085 21 4.80759 21C4.46434 21 4.17969 20.7153 4.17969 20.372C4.17969 16.7972 7.68759 13.8837 11.9993 13.8837C16.3109 13.8837 19.8187 16.7972 19.8187 20.372C19.8187 20.7153 19.5341 21 19.1908 21Z" fill="#2E2A94"/>
</svg>
