<svg width="16" height="16" viewBox="0 0 16 16" fill="none" xmlns="http://www.w3.org/2000/svg">
<g clip-path="url(#clip0_7965_12598)">
<path d="M12.3339 2.93976C13.5435 3.97202 14.3442 5.40263 14.5917 6.97342C14.8391 8.54421 14.5169 10.1517 13.6833 11.5058C12.8496 12.8599 11.5594 13.8715 10.0455 14.3579C8.53154 14.8443 6.8936 14.7736 5.42724 14.1584L5.27857 14.0931L2.10591 14.6591L2.03257 14.6664C2.00815 14.6678 1.98367 14.6678 1.95924 14.6664L1.89124 14.6578L1.81924 14.6418L1.74924 14.6171L1.68324 14.5858L1.62124 14.5471L1.61191 14.5398L1.60391 14.5351L1.54657 14.4864L1.49524 14.4331L1.45057 14.3744L1.41324 14.3118L1.39057 14.2651L1.36391 14.1931L1.34524 14.1078L1.33724 14.0398C1.3355 14.012 1.3355 13.9842 1.33724 13.9564L1.34524 13.8898L1.36124 13.8164L1.39124 13.7351L2.34657 11.5324L2.34057 11.5231C1.53908 10.2292 1.20445 8.69999 1.39231 7.18959C1.58017 5.6792 2.2792 4.27856 3.37324 3.22042L3.51657 3.08509C4.71659 1.9914 6.27449 1.37324 7.8979 1.3466C9.52132 1.31997 11.0987 1.88602 12.3339 2.93976ZM6.33591 5.00042C6.07069 5.00042 5.81634 5.10578 5.6288 5.29332C5.44126 5.48085 5.33591 5.73521 5.33591 6.00042V6.66709C5.33591 7.72796 5.75733 8.74537 6.50748 9.49552C7.25763 10.2457 8.27504 10.6671 9.33591 10.6671H10.0026C10.2678 10.6671 10.5221 10.5617 10.7097 10.3742C10.8972 10.1867 11.0026 9.93231 11.0026 9.66709C11.0026 9.40187 10.8972 9.14752 10.7097 8.95998C10.5221 8.77245 10.2678 8.66709 10.0026 8.66709H9.33591L9.23991 8.67176C9.08733 8.6864 8.94017 8.73592 8.80978 8.81648C8.67938 8.89705 8.56926 9.00652 8.48791 9.13642L8.45991 9.18576L8.44524 9.18109C8.07108 9.04806 7.73125 8.83335 7.45045 8.55255C7.16965 8.27175 6.95494 7.93192 6.82191 7.55776L6.81657 7.54242L6.86657 7.51509C7.01028 7.42512 7.12874 7.30009 7.21084 7.15175C7.29294 7.00341 7.33598 6.83663 7.33591 6.66709V6.00042C7.33591 5.73521 7.23055 5.48085 7.04301 5.29332C6.85548 5.10578 6.60112 5.00042 6.33591 5.00042Z" fill="#2E2A94"/>
</g>
<defs>
<clipPath id="clip0_7965_12598">
<rect width="16" height="16" fill="white"/>
</clipPath>
</defs>
</svg>
