<svg width="24" height="24" viewBox="0 0 24 24" fill="none" xmlns="http://www.w3.org/2000/svg">
<path d="M19.3764 6.96661C18.7988 6.28005 17.7325 6 15.6961 6H8.30379C6.22075 6 5.13636 6.29812 4.56098 7.02906C4 7.74173 4 8.79179 4 10.2451V13.0151C4 15.8307 4.6656 17.2602 8.30379 17.2602H15.6961C17.4621 17.2602 18.4407 17.0131 19.0738 16.4072C19.723 15.7859 20 14.7714 20 13.0151V10.2451C20 8.71246 19.9566 7.65621 19.3764 6.96661ZM14.2721 12.0125L10.9153 13.7669C10.8402 13.8061 10.7581 13.8256 10.6762 13.8256C10.5834 13.8256 10.4908 13.8006 10.4088 13.751C10.2543 13.6574 10.1601 13.49 10.1601 13.3095V9.81197C10.1601 9.63174 10.2541 9.46452 10.4082 9.37089C10.5624 9.27726 10.7541 9.27086 10.9141 9.35396L14.2709 11.097C14.4417 11.1857 14.5489 11.362 14.5492 11.5544C14.5494 11.7469 14.4426 11.9235 14.2721 12.0125Z" fill="#585EF9"/>
</svg>
